<?xml version="1.0" encoding="UTF-8"?>
<!DOCTYPE svg PUBLIC "-//W3C//DTD SVG 1.1//EN" "http://www.w3.org/Graphics/SVG/1.1/DTD/svg11.dtd">
<!-- Creator: CorelDRAW X7 -->
<svg xmlns="http://www.w3.org/2000/svg" xml:space="preserve" width="210mm" height="297mm" version="1.1" style="shape-rendering:geometricPrecision; text-rendering:geometricPrecision; image-rendering:optimizeQuality; fill-rule:evenodd; clip-rule:evenodd"
viewBox="0 0 21000 29700"
 xmlns:xlink="http://www.w3.org/1999/xlink">
 <defs>
  <style type="text/css">
   <![CDATA[
    .fil0 {fill:#0678BE}
    .fil1 {fill:black;fill-rule:nonzero}
   ]]>
  </style>
 </defs>
 <g id="Слой_x0020_1">
  <metadata id="CorelCorpID_0Corel-Layer"/>
  <path class="fil0" d="M15221 17075c685,0 1241,558 1241,1247 0,688 -556,1246 -1241,1246 -686,0 -1242,-558 -1242,-1246 0,-689 556,-1247 1242,-1247zm325 724c-76,-47 -149,-66 -221,-114 -45,-30 -107,-102 -160,-164 -10,99 -40,140 -75,169 -74,57 -120,75 -184,109 -54,28 -345,201 -345,574 0,372 315,646 664,646 349,0 652,-252 652,-635 0,-383 -284,-556 -331,-585zm6 1075c-7,7 -74,53 -152,60 -78,7 -184,12 -248,-46 -10,-10 -7,-24 0,-30 8,-6 13,-11 22,-11 9,0 7,0 12,3 29,24 72,42 165,42 93,0 158,-26 187,-47 13,-10 19,-2 20,4 1,6 4,15 -6,25zm-251 -122c16,-14 42,-38 67,-48 25,-10 37,-8 61,-8 23,0 48,1 65,13 17,11 27,37 33,52 6,14 0,23 -11,29 -10,5 -12,2 -22,-16 -10,-19 -19,-38 -70,-38 -50,0 -66,17 -91,38 -24,20 -33,27 -42,16 -9,-12 -6,-24 10,-38zm523 -275c0,45 -14,125 -49,176 -35,51 -57,69 -97,66 -53,-4 -157,-166 -223,-169 -84,-2 -267,175 -410,175 -87,0 -113,-13 -142,-32 -44,-30 -65,-76 -64,-140 1,-112 107,-218 240,-219 170,-1 287,167 373,166 72,-1 211,-143 279,-143 73,0 93,75 93,120zm-11328 1088l921 0c686,0 1243,-558 1243,-1245 0,-687 -557,-1245 -1243,-1245l-921 0 0 2490zm649 -1822l276 0c324,0 590,265 590,587 0,326 -266,591 -590,591l-276 0 0 -1178zm4160 1822l-527 -903c179,-166 295,-405 295,-671 0,-504 -411,-916 -914,-916l-1048 0 0 2490 653 0 0 -661 404 0 385 661 752 0zm-1541 -1938l404 0c199,0 358,159 358,358 0,199 -159,355 -358,355l-404 0 0 -713zm2516 -552l-656 0 0 1508c0,547 434,982 981,982 540,0 981,-435 981,-982l0 -1508 -656 0 0 1498c0,179 -146,325 -325,325 -179,0 -325,-146 -325,-325l0 -1498zm1687 2221c0,149 113,269 262,269 149,0 262,-120 262,-269 0,-149 -113,-262 -262,-262 -149,0 -262,113 -262,262zm908 266l653 0 0 -2487 -653 0 0 2487z"/>
  <path class="fil1" d="M4936 21025c-139,0 -241,-52 -305,-157l-6 0 2 71c3,41 4,86 4,135l0 345 -83 0 0 -1318 70 0 16 129 5 0c62,-98 162,-147 299,-147 122,0 216,41 280,121 64,81 96,198 96,351 0,150 -34,265 -101,347 -68,82 -160,123 -277,123zm-2 -71c93,0 165,-35 216,-104 51,-69 76,-166 76,-290 0,-268 -96,-401 -288,-401 -106,0 -184,29 -233,87 -49,58 -74,153 -74,285l0 27c0,142 23,243 71,304 48,61 125,92 232,92z"/>
  <path id="1" class="fil1" d="M5397 20101l85 0 192 509c59,156 96,262 111,317l5 0c23,-72 62,-179 114,-322l192 -504 86 0 -407 1054c-33,86 -60,143 -83,174 -22,30 -48,52 -78,67 -29,15 -66,23 -108,23 -32,0 -67,-6 -106,-18l0 -71c33,9 67,13 105,13 28,0 53,-6 75,-20 21,-13 41,-34 58,-62 18,-28 38,-73 61,-134 24,-61 38,-100 45,-119l-347 -907z"/>
  <path id="2" class="fil1" d="M6696 21025c-130,0 -232,-41 -305,-122 -74,-82 -110,-196 -110,-343 0,-150 38,-267 114,-351 76,-84 181,-126 313,-126 79,0 154,14 225,42l-22 73c-78,-26 -147,-39 -205,-39 -111,0 -195,34 -252,103 -58,69 -86,167 -86,297 0,122 28,218 86,287 57,69 137,104 240,104 82,0 159,-15 229,-44l0 77c-57,28 -133,42 -227,42z"/>
  <path id="3" class="fil1" d="M7508 21025c-130,0 -231,-41 -305,-122 -73,-82 -110,-196 -110,-343 0,-150 38,-267 115,-351 76,-84 180,-126 312,-126 79,0 154,14 226,42l-23 73c-78,-26 -146,-39 -204,-39 -111,0 -196,34 -253,103 -57,69 -86,167 -86,297 0,122 29,218 86,287 57,69 137,104 240,104 83,0 159,-15 230,-44l0 77c-58,28 -134,42 -228,42z"/>
  <polygon id="4" class="fil1" points="8451,20101 8553,20101 8147,20540 8583,21008 8471,21008 8042,20548 8042,21008 7958,21008 7958,20101 8042,20101 8042,20542 "/>
  <path id="5" class="fil1" d="M9459 20554c0,148 -36,263 -108,347 -71,83 -170,124 -297,124 -79,0 -149,-19 -210,-57 -61,-39 -107,-94 -139,-166 -33,-71 -49,-154 -49,-248 0,-149 36,-264 108,-347 72,-82 170,-124 295,-124 125,0 223,42 294,126 71,84 106,199 106,345zm-716 0c0,124 27,222 82,291 55,70 132,105 233,105 100,0 177,-35 232,-105 55,-69 82,-167 82,-291 0,-125 -28,-223 -83,-292 -55,-69 -133,-103 -233,-103 -100,0 -177,34 -232,103 -54,69 -81,166 -81,292z"/>
  <path id="6" class="fil1" d="M9697 21008l-104 0 273 -391c-83,-16 -143,-45 -180,-87 -37,-42 -56,-97 -56,-163 0,-82 28,-147 83,-195 56,-47 130,-71 224,-71l374 0 0 907 -82 0 0 -381 -277 0 -255 381zm20 -644c0,62 20,109 61,139 40,30 101,45 182,45l269 0 0 -369 -294 0c-69,0 -123,16 -161,48 -38,31 -57,77 -57,137z"/>
  <path id="7" class="fil1" d="M10785 20492c164,0 246,-57 246,-170 0,-54 -18,-95 -56,-124 -38,-28 -92,-43 -162,-43 -44,0 -86,5 -124,16 -39,10 -80,25 -124,44l-31 -68c97,-42 191,-64 282,-64 99,0 174,21 226,62 51,41 76,98 76,171 0,105 -53,172 -161,201l0 5c67,17 116,45 146,83 31,39 46,88 46,149 0,84 -31,150 -92,199 -61,48 -147,72 -256,72 -59,0 -113,-5 -161,-17 -49,-11 -89,-26 -121,-45l0 -83c57,27 107,46 149,56 42,9 86,14 133,14 83,0 147,-17 193,-52 45,-35 69,-85 69,-149 0,-63 -22,-110 -67,-140 -43,-30 -109,-45 -197,-45l-126 0 0 -72 112 0z"/>
  <path id="8" class="fil1" d="M11470 20484l289 0c213,0 319,83 319,251 0,86 -29,153 -89,201 -59,48 -145,72 -256,72l-346 0 0 -907 83 0 0 383zm0 78l0 368 276 0c79,0 139,-17 181,-50 42,-32 64,-81 64,-147 0,-60 -19,-104 -56,-130 -37,-27 -102,-41 -194,-41l-271 0zm849 446l-82 0 0 -907 82 0 0 907z"/>
  <path id="9" class="fil1" d="M12691 20101l0 304c0,77 18,132 55,166 38,34 95,51 172,51 55,0 107,-10 156,-29 50,-20 101,-51 155,-94l0 -398 82 0 0 907 -82 0 0 -430c-56,43 -110,73 -164,92 -54,18 -112,27 -174,27 -93,0 -163,-24 -211,-72 -48,-49 -71,-119 -71,-210l0 -314 82 0z"/>
  <polygon id="10" class="fil1" points="13698,20101 13698,20499 14274,20499 14274,20101 14356,20101 14356,21008 14274,21008 14274,20571 13698,20571 13698,21008 13615,21008 13615,20101 "/>
  <path id="11" class="fil1" d="M15410 20554c0,148 -36,263 -108,347 -72,83 -170,124 -297,124 -79,0 -150,-19 -210,-57 -61,-39 -107,-94 -140,-166 -32,-71 -48,-154 -48,-248 0,-149 36,-264 108,-347 71,-82 170,-124 295,-124 125,0 223,42 294,126 71,84 106,199 106,345zm-716 0c0,124 27,222 82,291 55,70 132,105 232,105 101,0 178,-35 233,-105 55,-69 82,-167 82,-291 0,-125 -28,-223 -83,-292 -55,-69 -133,-103 -233,-103 -100,0 -178,34 -232,103 -54,69 -81,166 -81,292z"/>
  <path id="12" class="fil1" d="M16028 21025c-132,0 -235,-40 -309,-122 -73,-81 -110,-195 -110,-341 0,-145 35,-261 107,-348 71,-87 167,-131 288,-131 106,0 191,38 253,112 61,74 92,175 92,302l0 67 -654 0c2,125 31,221 88,287 57,66 139,99 245,99 52,0 97,-3 136,-11 40,-7 89,-22 149,-46l0 75c-51,22 -98,37 -142,45 -43,8 -91,12 -143,12zm-24 -870c-88,0 -158,29 -211,87 -53,58 -84,141 -93,250l562 0c0,-106 -23,-188 -69,-248 -45,-59 -109,-89 -189,-89z"/>
  <path id="13" class="fil1" d="M4910 22664c-129,0 -231,-41 -304,-123 -74,-82 -110,-196 -110,-342 0,-151 38,-268 114,-352 76,-83 181,-125 313,-125 78,0 153,13 225,41l-22 73c-79,-26 -147,-39 -205,-39 -111,0 -195,34 -253,103 -57,69 -86,168 -86,297 0,122 29,218 86,287 58,70 138,104 241,104 82,0 159,-14 229,-44l0 77c-58,28 -134,43 -228,43z"/>
  <path id="14" class="fil1" d="M6111 22192c0,148 -36,264 -108,347 -72,83 -170,125 -297,125 -79,0 -150,-19 -210,-58 -61,-38 -107,-93 -140,-165 -32,-72 -48,-155 -48,-249 0,-148 36,-264 108,-346 71,-83 170,-124 295,-124 125,0 223,42 294,125 71,84 106,199 106,345zm-716 0c0,125 27,222 82,292 55,69 132,104 232,104 101,0 178,-35 233,-104 55,-70 82,-167 82,-292 0,-125 -28,-222 -83,-292 -55,-69 -133,-103 -233,-103 -100,0 -177,34 -232,103 -54,69 -81,166 -81,292z"/>
  <path id="15" class="fil1" d="M7113 22192c0,148 -36,264 -108,347 -72,83 -171,125 -297,125 -80,0 -150,-19 -210,-58 -61,-38 -108,-93 -140,-165 -32,-72 -48,-155 -48,-249 0,-148 36,-264 107,-346 72,-83 171,-124 296,-124 124,0 222,42 293,125 71,84 107,199 107,345zm-717 0c0,125 28,222 83,292 54,69 132,104 232,104 101,0 178,-35 233,-104 54,-70 82,-167 82,-292 0,-125 -28,-222 -83,-292 -55,-69 -133,-103 -233,-103 -100,0 -178,34 -232,103 -54,69 -82,166 -82,292z"/>
  <path id="16" class="fil1" d="M7315 22102c0,-394 111,-619 333,-674 78,-19 152,-36 224,-50 71,-13 134,-25 189,-36l16 72 -100 19c-166,31 -275,55 -328,72 -75,22 -133,74 -176,156 -43,82 -67,195 -73,338l5 0c59,-71 117,-121 174,-151 56,-31 113,-46 173,-46 111,0 196,36 255,108 59,72 89,174 89,306 0,141 -34,251 -102,329 -68,79 -163,119 -286,119 -125,0 -222,-49 -290,-147 -69,-97 -103,-235 -103,-415zm399 486c96,0 168,-31 219,-95 50,-63 75,-154 75,-274 0,-112 -22,-198 -67,-255 -45,-58 -111,-87 -198,-87 -64,0 -126,20 -187,61 -60,40 -113,96 -158,167 0,100 13,187 37,262 25,75 61,131 108,167 48,36 105,54 171,54z"/>
  <polygon id="17" class="fil1" points="8963,22568 9416,22568 9416,21739 9499,21739 9499,22568 9619,22568 9619,22954 9538,22954 9538,22647 8346,22647 8346,21739 8428,21739 8428,22568 8881,22568 8881,21739 8963,21739 "/>
  <path id="18" class="fil1" d="M10179 22664c-132,0 -235,-41 -309,-122 -74,-82 -110,-195 -110,-342 0,-145 35,-261 106,-348 72,-87 168,-130 288,-130 107,0 192,37 254,111 61,74 92,175 92,303l0 66 -654 0c1,125 30,221 88,287 57,66 138,99 245,99 52,0 97,-3 136,-10 40,-8 89,-23 149,-47l0 75c-51,22 -98,37 -142,45 -43,9 -91,13 -143,13zm-25 -871c-87,0 -157,29 -210,87 -53,58 -84,141 -93,250l561 0c0,-105 -22,-188 -68,-247 -46,-60 -109,-90 -190,-90z"/>
  <path id="19" class="fil1" d="M11112 22664c-129,0 -231,-41 -304,-123 -74,-82 -110,-196 -110,-342 0,-151 38,-268 114,-352 76,-83 181,-125 313,-125 79,0 154,13 225,41l-22 73c-79,-26 -147,-39 -205,-39 -111,0 -195,34 -252,103 -58,69 -87,168 -87,297 0,122 29,218 87,287 57,70 137,104 240,104 82,0 159,-14 229,-44l0 77c-57,28 -134,43 -228,43z"/>
  <polygon id="20" class="fil1" points="12139,21811 11837,21811 11837,22647 11755,22647 11755,21811 11445,21811 11445,21739 12139,21739 "/>
  <path id="21" class="fil1" d="M13021 21958c0,58 -14,103 -42,135 -29,33 -75,56 -139,69l0 5c73,9 126,30 158,63 33,34 49,82 49,145 0,87 -29,154 -86,201 -58,47 -142,71 -253,71l-383 0 0 -908 385 0c103,0 181,19 233,56 52,37 78,92 78,163zm-62 415c0,-111 -85,-166 -256,-166l-296 0 0 361 308 0c163,0 244,-65 244,-195zm-26 -408c0,-53 -18,-91 -56,-114 -38,-22 -95,-34 -171,-34l-299 0 0 312 289 0c85,0 146,-14 182,-40 37,-26 55,-68 55,-124z"/>
  <path id="22" class="fil1" d="M14043 22192c0,148 -36,264 -108,347 -72,83 -171,125 -297,125 -80,0 -150,-19 -210,-58 -61,-38 -107,-93 -140,-165 -32,-72 -48,-155 -48,-249 0,-148 36,-264 108,-346 71,-83 170,-124 295,-124 125,0 223,42 294,125 70,84 106,199 106,345zm-716 0c0,125 27,222 82,292 55,69 132,104 232,104 101,0 178,-35 233,-104 55,-70 82,-167 82,-292 0,-125 -28,-222 -83,-292 -55,-69 -133,-103 -233,-103 -100,0 -178,34 -232,103 -54,69 -81,166 -81,292z"/>
  <path id="23" class="fil1" d="M5495 23663c0,205 -53,359 -161,464 -107,105 -265,158 -473,158l-292 0 0 -1221 330 0c194,0 343,51 444,153 102,102 152,250 152,446zm-92 3c0,-175 -45,-306 -133,-394 -89,-88 -219,-133 -391,-133l-225 0 0 1071 202 0c365,0 547,-182 547,-544z"/>
  <path id="24" class="fil1" d="M6112 23360c38,0 80,4 124,12l-16 79c-38,-9 -77,-14 -118,-14 -77,0 -141,33 -190,98 -50,66 -74,149 -74,249l0 501 -83 0 0 -908 70 0 8 164 6 0c38,-67 77,-114 120,-141 42,-27 93,-40 153,-40z"/>
  <path id="25" class="fil1" d="M6492 23377l0 588c0,92 19,158 58,200 38,41 98,62 179,62 108,0 187,-28 238,-82 51,-55 76,-144 76,-267l0 -501 82 0 0 908 -70 0 -15 -126 -5 0c-59,95 -164,143 -315,143 -206,0 -310,-111 -310,-332l0 -593 82 0z"/>
  <path id="26" class="fil1" d="M7817 24302c-140,0 -242,-53 -306,-157l-5 0 2 70c2,41 3,86 3,135l0 345 -82 0 0 -1318 70 0 16 130 5 0c62,-98 161,-147 298,-147 123,0 216,40 280,121 65,80 97,197 97,351 0,149 -34,265 -102,347 -67,82 -159,123 -276,123zm-2 -72c93,0 165,-34 216,-104 51,-69 76,-166 76,-290 0,-267 -96,-401 -289,-401 -105,0 -183,29 -232,88 -50,58 -75,153 -75,285l0 26c0,142 24,244 72,305 47,61 125,91 232,91z"/>
  <path id="27" class="fil1" d="M8997 24285l-20 -144 -7 0c-46,59 -93,100 -141,124 -48,25 -105,37 -171,37 -89,0 -158,-23 -208,-69 -49,-45 -74,-108 -74,-189 0,-89 37,-158 111,-207 74,-49 180,-75 320,-77l173 -5 0 -60c0,-87 -18,-152 -53,-196 -35,-44 -91,-66 -169,-66 -84,0 -171,24 -262,70l-31 -71c100,-47 199,-70 296,-70 100,0 174,26 223,77 50,52 74,133 74,242l0 604 -61 0zm-334 -58c97,0 174,-28 230,-84 55,-55 84,-132 84,-230l0 -90 -159 7c-128,6 -219,26 -273,60 -54,33 -81,86 -81,157 0,57 17,101 52,132 35,32 84,48 147,48z"/>
  <polygon id="28" class="fil1" points="9435,24285 9352,24285 9352,22986 9435,22986 "/>
 </g>
</svg>
